<svg width="45" height="46" viewBox="0 0 45 46" fill="none" xmlns="http://www.w3.org/2000/svg">
<path d="M45 22.9248C45 25.8796 44.418 28.8054 43.2873 31.5352C42.1566 34.265 40.4992 36.7454 38.4099 38.8347C36.3206 40.924 33.8402 42.5814 31.1103 43.7121C28.3805 44.8428 25.4547 45.4248 22.5 45.4248C19.5452 45.4248 16.6194 44.8428 13.8896 43.7121C11.1598 42.5813 8.67937 40.924 6.59006 38.8347C4.50074 36.7453 2.84341 34.2649 1.71269 31.5351C0.581962 28.8053 -8.6703e-06 25.8795 1.96716e-06 22.9247L22.5 22.9248L45 22.9248Z" fill="#C2DEFF"/>
<path d="M33.001 18.4248L22.501 27.4248L17.251 22.9248" stroke="#1F87FF" stroke-width="3" stroke-linecap="round"/>
</svg>
