<svg width="75" height="90" viewBox="0 0 75 90" fill="none" xmlns="http://www.w3.org/2000/svg">
<path d="M44.5 0.424803C32.6979 0.424803 21.3791 5.11318 13.0337 13.4585C4.68838 21.8039 -1.57001e-06 33.1227 -1.94516e-06 44.9248C-2.32031e-06 56.7269 4.68838 68.0457 13.0337 76.3911C21.3791 84.7364 32.6979 89.4248 44.5 89.4248L44.5 44.9248L44.5 0.424803Z" fill="#EBF4FF"/>
<path d="M25.086 53.8122C23.6561 54.0643 23.2699 51.8744 24.6998 51.6223L47.7003 47.5667C49.1302 47.3145 49.5163 49.5045 48.0864 49.7566L25.086 53.8122ZM52.5433 39.0773L64.7266 36.9291C65.3262 36.8234 65.899 37.228 66.0057 37.8326L68.6171 52.6431C68.7237 53.2476 68.3239 53.8238 67.7242 53.9296L55.5409 56.0778C54.9413 56.1835 54.3685 55.7789 54.2619 55.1743L51.6504 40.3639C51.5438 39.7593 51.9436 39.1831 52.5433 39.0773ZM64.0275 39.3104L54.0156 41.0758L56.241 53.6968L66.253 51.9314L64.0275 39.3104ZM24.0343 47.8421C22.6044 48.0942 22.2182 45.9043 23.6481 45.6522L36.0906 43.4582C37.5205 43.2061 37.9066 45.396 36.4767 45.6481L24.0343 47.8421ZM40.8602 44.8752C39.4303 45.1274 39.0441 42.9374 40.474 42.6853L46.6487 41.5965C48.0786 41.3444 48.4647 43.5343 47.0348 43.7865L40.8602 44.8752ZM26.1397 59.7823C24.7098 60.0345 24.3236 57.8445 25.7535 57.5924L48.754 53.5368C50.1839 53.2847 50.57 55.4746 49.1401 55.7267L26.1397 59.7823ZM17.7301 38.8821L68.2267 29.9782L67.9114 28.19C67.4402 25.5179 64.8822 23.7109 62.2318 24.1783L21.3798 31.3816C18.7298 31.8488 16.9437 34.4218 17.4148 37.0939L17.7301 38.8821ZM68.6128 32.1682L18.1163 41.0721L21.8737 62.3817C22.3449 65.0538 24.903 66.8612 27.5534 66.3938L68.4054 59.1905C71.0554 58.7232 72.8415 56.1503 72.3703 53.4778L68.6128 32.1682ZM15.2434 37.4767C14.5591 33.5958 17.1454 29.8702 20.9942 29.1915L61.8461 21.9882C65.6946 21.3097 69.3994 23.9261 70.0837 27.8069L74.5427 53.095C75.227 56.9759 72.6408 60.7019 68.792 61.3806L27.9401 68.5839C24.0912 69.2625 20.3867 66.6456 19.7024 62.7648L15.2434 37.4767Z" fill="#1F87FF"/>
</svg>
