<svg width="98" height="21" viewBox="0 0 98 21" fill="none" xmlns="http://www.w3.org/2000/svg">
<path fill-rule="evenodd" clip-rule="evenodd" d="M43.0148 5.41728C42.3026 5.01577 41.2449 4.81905 39.7799 4.81905C37.776 4.82107 35.9155 5.24881 35.2124 5.51817C35.053 5.57062 34.8837 5.71186 34.8797 5.95196V6.00644L35.0789 7.03141L35.0829 7.05158C35.1446 7.25839 35.314 7.35423 35.4663 7.35423H35.4693C35.5191 7.3502 35.557 7.34011 35.5928 7.33103L35.9265 7.25032C36.7999 7.02838 38.1196 6.6874 39.5916 6.6874C40.486 6.6874 41.0856 6.7681 41.4889 6.94162C42.1423 7.19685 42.1463 7.63166 42.1533 8.35095V9.42737C42.0786 9.42535 41.9521 9.42435 41.7579 9.42435C41.0358 9.42435 39.6165 9.45966 38.2222 9.68866C36.0928 10.0256 34.3309 10.5492 34.3429 13.5676C34.3429 17.3991 37.7989 17.4052 39.4582 17.4092C40.5836 17.4072 41.6244 17.2357 42.3046 17.0924C43.8534 16.7222 44.2498 16.2168 44.2288 14.6339V8.26117C44.2288 7.28866 44.2328 6.08008 43.0138 5.41627L43.0148 5.41728ZM42.1632 15.2564C41.3386 15.5318 40.4362 15.67 39.4801 15.67V15.7608V15.67C37.9523 15.6579 36.4623 15.4783 36.4593 13.4758C36.4693 11.8819 37.2959 11.6932 38.3417 11.4531L38.4144 11.4359C39.3446 11.2312 41.6832 11.1938 42.1642 11.1878V15.2564H42.1632ZM61.4949 8.26016V14.6299C61.5148 16.2138 61.1194 16.7182 59.5697 17.0884C58.8924 17.2327 57.8517 17.4042 56.7242 17.4052C55.0649 17.4011 51.6099 17.3951 51.6089 13.5646C51.596 10.5482 53.3579 10.0236 55.4872 9.68664C56.8816 9.45663 58.3018 9.42132 59.0229 9.42132C59.2181 9.42132 59.3436 9.42334 59.4213 9.42435V8.34894C59.4133 7.62964 59.4084 7.19585 58.756 6.94061C58.3536 6.76508 57.7521 6.68639 56.8577 6.68639C55.3837 6.68639 54.065 7.02535 53.1925 7.24931L52.8599 7.33002C52.824 7.34011 52.7852 7.3502 52.7354 7.3502C52.582 7.3502 52.4137 7.25738 52.3509 7.04755L52.346 7.02939L52.1468 6.00442V5.95095C52.1508 5.71085 52.3201 5.5676 52.4784 5.51716C53.1836 5.2478 55.042 4.81905 57.0469 4.81804C58.511 4.81804 59.5697 5.01476 60.2808 5.41728C61.4989 6.08008 61.4959 7.28866 61.4939 8.26016H61.4949ZM59.4333 11.1878C58.9492 11.1928 56.6147 11.2312 55.6824 11.4359L55.6078 11.4531C54.562 11.6932 53.7353 11.8819 53.7254 13.4758C53.7274 15.4783 55.2193 15.6589 56.7471 15.67V15.7608V15.67C57.7033 15.67 58.6056 15.5318 59.4303 15.2564V11.1878H59.4333ZM92.7752 4.81804C87.9647 4.82611 87.5563 8.07655 87.5513 11.1232C87.5563 14.1598 87.9637 17.3981 92.7752 17.4052C97.5827 17.3971 97.9921 14.1668 97.999 11.1222C97.994 7.93431 97.5867 4.8251 92.7752 4.81703V4.81804ZM92.7752 15.6276C89.857 15.6135 89.7106 14.074 89.6907 11.1242C89.7106 8.16029 89.857 6.61173 92.7742 6.59862C95.6924 6.61173 95.8398 8.16029 95.8597 11.1232C95.8398 14.073 95.6924 15.6125 92.7752 15.6276ZM84.1402 16.9573L84.0157 16.9895C83.3434 17.1651 82.4221 17.4052 80.8067 17.4052H80.8027C76.3487 17.3971 75.4763 15.0879 75.4713 11.1C75.4753 6.528 76.8856 4.8251 80.6702 4.81905C82.0068 4.81905 82.9281 4.99761 83.5884 5.16205L83.5844 1.47781C83.5794 1.3164 83.6492 1.10455 84.0207 1.03191L85.2039 0.721191H85.2686C85.5405 0.728253 85.6371 0.976425 85.6371 1.18828V15.0294C85.655 15.9051 85.5544 16.6536 84.1402 16.9593V16.9573ZM83.5854 6.93355C83.191 6.83065 82.0885 6.57441 80.8465 6.57441C78.5677 6.59761 77.6096 7.23418 77.5877 11.1242C77.6146 15.3966 78.8506 15.6286 80.8674 15.6488V15.7396V15.6488C82.1223 15.6488 83.2 15.3795 83.5844 15.2725V6.93355H83.5854ZM72.9595 17.1156H71.9037C71.6179 17.1156 71.4058 16.8957 71.4058 16.6042V8.39232C71.3858 7.00417 70.9805 6.61678 69.5264 6.5966C67.881 6.5966 66.2148 7.02233 65.666 7.17567V16.6052C65.666 16.9008 65.4668 17.1167 65.1909 17.1167H64.1103C63.8265 17.1167 63.6123 16.8967 63.6123 16.6062V7.39559C63.5974 6.54414 63.6741 5.95499 64.8543 5.56155C65.9827 5.16104 68.141 4.82107 69.5702 4.82006C72.2892 4.82409 73.4495 5.83393 73.4545 8.19559V16.6072C73.4545 16.8977 73.2403 17.1177 72.9565 17.1177L72.9595 17.1156ZM49.0035 17.3376C49.613 17.3245 50.0612 17.2024 50.2385 16.9986C50.3003 16.928 50.3281 16.8433 50.3212 16.7615C50.3172 16.6929 50.3172 16.6929 50.1519 15.8899L50.1469 15.8697C50.111 15.6609 49.9676 15.5651 49.8461 15.5651H49.8282C49.8282 15.5651 49.6758 15.5621 49.5244 15.5621C49.0902 15.5479 48.7306 15.4813 48.7236 14.8317V1.18626C48.7236 0.960284 48.5902 0.727244 48.3352 0.7222H48.2585L47.0733 1.03494C46.8721 1.05511 46.661 1.20341 46.671 1.4768V14.874C46.6739 16.4599 47.5026 17.3356 49.0035 17.3386V17.3376ZM32.2733 17.1156H23.7857C23.5018 17.1156 23.2877 16.8957 23.2877 16.6042V15.5388C23.2827 15.2766 23.3634 15.1626 23.5207 14.9618L30.2764 6.88614H23.6562C23.3723 6.88614 23.1582 6.66419 23.1582 6.37365V5.61905C23.1582 5.32649 23.3733 5.10757 23.6562 5.10757H32.2314C32.5133 5.10757 32.7264 5.3275 32.7274 5.61905V6.70656C32.7324 6.90329 32.6677 7.06974 32.5133 7.24528L25.7407 15.3381H32.2743C32.5571 15.3381 32.7703 15.558 32.7723 15.8496V16.6062C32.7703 16.8957 32.5571 17.1156 32.2743 17.1156H32.2733Z" fill="#1D1D1B"/>
<path fill-rule="evenodd" clip-rule="evenodd" d="M3.93207 20.5C3.21199 20.5 2.81161 20.3265 2.59748 20.2004C2.30168 20.0248 1.75688 19.5779 1.26786 18.2564C0.484039 16.1368 0.0199193 13.5482 0 10.5076V10.4975C0.0199193 7.45082 0.484039 4.86318 1.26786 2.74262C1.75589 1.42207 2.30068 0.974149 2.59947 0.799622C2.81061 0.671501 3.21 0.5 3.92908 0.5C4.20397 0.5 4.52666 0.525221 4.90115 0.586759C7.07833 0.949937 9.48956 1.83064 12.0621 3.3338L12.0701 3.33783C14.6218 4.8773 16.5699 6.58323 17.9632 8.34161C18.8327 9.43922 18.9363 10.1474 18.9363 10.4985C18.9363 10.8496 18.8327 11.5598 17.9632 12.6554C16.5689 14.4137 14.6218 16.1207 12.0701 17.6591L12.0601 17.6652C9.49055 19.1683 7.07833 20.0491 4.90115 20.4112C4.52567 20.4748 4.20397 20.499 3.93108 20.499" fill="#FF6900"/>
</svg>
